<svg width="144" height="48" viewBox="0 0 144 48" fill="none" xmlns="http://www.w3.org/2000/svg">
<g clip-path="url(#clip0_841_1556)">
<path d="M15.6461 20.882C15.8271 20.7012 15.9699 20.5645 16.108 20.4326C17.2651 19.3042 18.6317 18.6204 20.2126 18.425C22.8173 18.1075 25.0267 18.9281 26.8124 20.9064C27.898 22.108 28.5742 23.5246 28.7837 25.1463C29.1266 27.8036 28.4694 30.1434 26.6029 32.0777C25.4791 33.2452 24.1506 34.0219 22.5602 34.2807C20.0698 34.6813 17.8222 34.1147 15.8604 32.4636C15.7033 32.3317 15.5557 32.1803 15.3985 32.0435C14.8224 31.5502 14.4986 30.881 14.1938 30.2069C13.7891 29.3179 13.5034 28.3898 13.3748 27.4177C13.3605 27.3054 13.351 27.1979 13.351 27.0856C13.351 22.5428 13.351 18.0049 13.351 13.4621C13.351 13.3986 13.3462 13.3302 13.351 13.2667C13.3748 13.0664 13.451 12.9883 13.6462 12.9883C14.2129 12.9834 14.7795 12.9834 15.3414 12.9883C15.5414 12.9883 15.6128 13.0713 15.6366 13.2716C15.6461 13.3546 15.6414 13.4377 15.6414 13.5207C15.6414 15.8605 15.6414 18.2003 15.6414 20.54C15.6461 20.6377 15.6461 20.7354 15.6461 20.882ZM21.0221 32.1315C21.5316 32.1364 22.0649 32.0777 22.584 31.9165C24.8267 31.2278 26.4505 29.0883 26.5505 26.6801C26.6267 24.7751 25.9695 23.1729 24.5934 21.9127C23.3268 20.7501 21.8126 20.33 20.1412 20.6182C18.4413 20.9113 17.0985 21.8003 16.2318 23.3536C15.4795 24.7018 15.3604 26.1575 15.6366 27.662C16.0461 29.904 18.1365 32.1852 21.0221 32.1315Z" fill="#0F0F0F"/>
<path d="M34.0376 26.7561C34.0757 27.6549 34.2423 28.4853 34.6328 29.2571C35.3518 30.6834 36.4279 31.7092 37.9755 32.0707C39.9135 32.52 41.6611 32.0511 43.1705 30.7225C43.5753 30.3659 43.88 29.9165 44.1752 29.4622C44.3038 29.2619 44.4276 29.0568 44.5514 28.8565C44.68 28.6514 44.7562 28.6269 44.9752 28.7393C45.1371 28.8223 45.2895 28.9102 45.4514 28.9982C45.7514 29.1642 46.0561 29.3254 46.3561 29.4915C46.5704 29.6136 46.6037 29.6967 46.5037 29.9116C45.4181 32.1635 43.7324 33.6631 41.3087 34.2053C39.8183 34.5374 38.3279 34.4788 36.8613 34.0343C35.5613 33.6386 34.4852 32.8913 33.6185 31.8167C32.5805 30.5271 31.9138 29.0714 31.7377 27.4058C31.4805 24.9634 32.1234 22.7946 33.6852 20.9237C34.9709 19.3851 36.6089 18.5595 38.5707 18.3886C39.8707 18.2713 41.1468 18.4032 42.3468 18.9259C44.6419 19.9273 46.1037 21.6906 46.7561 24.1574C46.9418 24.8608 47.0275 25.5838 47.037 26.3165C47.037 26.3897 47.0418 26.463 47.0323 26.5363C47.018 26.6633 46.9418 26.7365 46.818 26.7463C46.7275 26.7512 46.6371 26.7512 46.5466 26.7512C42.4848 26.7512 38.4279 26.7512 34.3661 26.7512C34.2709 26.7561 34.1709 26.7561 34.0376 26.7561ZM44.5038 24.6557C44.2657 23.7959 43.9514 22.9949 43.3419 22.3647C41.823 20.7919 39.9802 20.2985 37.9088 20.8212C36.3041 21.2266 35.2185 22.311 34.5852 23.8692C34.4804 24.1183 34.3709 24.3723 34.3185 24.6557C37.7136 24.6557 41.0992 24.6557 44.5038 24.6557Z" fill="#0F0F0F"/>
<path d="M51.9336 26.7497C51.9717 27.6485 52.1383 28.4789 52.5288 29.2555C53.2478 30.6819 54.3239 31.7077 55.8715 32.0691C57.8095 32.5185 59.5571 32.0496 61.0665 30.7209C61.4713 30.3644 61.776 29.915 62.0712 29.4607C62.1998 29.2604 62.3236 29.0553 62.4474 28.855C62.576 28.6498 62.6522 28.6254 62.8712 28.7378C63.0331 28.8208 63.1855 28.9087 63.3474 28.9966C63.6474 29.1627 63.9521 29.3239 64.2521 29.49C64.4664 29.6121 64.4997 29.6952 64.3997 29.9101C63.314 32.1619 61.6284 33.6615 59.2047 34.2037C57.7048 34.5359 56.2048 34.4773 54.7334 34.0279C53.443 33.6322 52.3764 32.8849 51.5145 31.8151C50.4765 30.5256 49.8098 29.0699 49.6337 27.4042C49.3765 24.9619 50.0194 22.7931 51.5812 20.9222C52.8669 19.3835 54.5049 18.558 56.4667 18.387C57.7667 18.2698 59.0428 18.4017 60.2427 18.9244C62.5379 19.9257 63.9997 21.6891 64.6521 24.1559C64.8378 24.8593 64.9235 25.5822 64.933 26.3149C64.933 26.3882 64.9378 26.4615 64.9283 26.5348C64.914 26.6618 64.8378 26.735 64.714 26.7448C64.6235 26.7497 64.533 26.7497 64.4426 26.7497C60.3808 26.7497 56.3239 26.7497 52.2621 26.7497C52.1621 26.7497 52.0669 26.7497 51.9336 26.7497ZM52.2145 24.6492C55.6144 24.6492 58.9952 24.6492 62.3808 24.6492C61.7951 21.9627 59.538 20.6975 57.4191 20.6291C55.0144 20.5461 52.9621 21.9187 52.2145 24.6492Z" fill="#0F0F0F"/>
<path d="M67.2729 21.6056C67.2729 18.9873 67.2729 16.374 67.2729 13.7558C67.2729 13.2918 67.2967 13.2673 67.7395 13.2673C68.1966 13.2673 68.6538 13.2673 69.1156 13.2673C69.5585 13.2673 69.5775 13.2869 69.5775 13.7558C69.5775 15.5045 69.5775 17.2582 69.5775 19.0069C69.5775 19.4025 69.5775 19.7982 69.5775 20.1939C69.5775 20.4674 69.549 20.4479 69.8204 20.4479C70.6822 20.4479 71.5441 20.4479 72.406 20.4479C72.4679 20.4479 72.5298 20.4479 72.5964 20.4479C72.9964 20.4479 73.025 20.4772 73.025 20.8875C73.025 21.3222 73.0298 21.7521 73.025 22.1868C73.0202 22.4848 72.9679 22.5385 72.6726 22.5385C71.7298 22.5385 70.787 22.5385 69.8442 22.5385C69.5728 22.5385 69.5966 22.5141 69.5966 22.7877C69.5966 24.6927 69.5966 26.6026 69.5966 28.5077C69.5966 28.9864 69.6013 29.4651 69.7108 29.934C69.8918 30.7156 70.2823 31.3603 70.8775 31.8732C71.2965 32.2298 71.8108 32.2787 72.3298 32.2494C72.6822 32.2298 73.0155 32.1224 73.3345 31.9612C73.3726 31.9416 73.4155 31.9172 73.4535 31.9025C73.6535 31.8195 73.7488 31.8586 73.8297 32.0686C73.9202 32.2982 73.9964 32.5327 74.0821 32.7671C74.1773 33.026 74.2773 33.28 74.3678 33.5389C74.4249 33.7099 74.3916 33.8076 74.2297 33.8711C73.3345 34.2081 72.4203 34.4719 71.4489 34.3889C70.268 34.2912 69.3156 33.7441 68.568 32.8062C67.6824 31.7023 67.2776 30.4225 67.2729 29.001C67.2681 26.544 67.2681 24.0723 67.2729 21.6056Z" fill="#0F0F0F"/>
<path d="M85.1854 26.7526C83.1474 26.7526 81.1094 26.7526 79.0714 26.7526C78.7714 26.7526 78.7619 26.6744 78.7952 27.0652C78.9047 28.2961 79.2952 29.4147 80.0856 30.3673C80.857 31.2905 81.8046 31.9353 82.9903 32.1306C84.833 32.4384 86.4853 31.9841 87.9043 30.7287C88.3805 30.3038 88.7329 29.7616 89.0757 29.2193C89.1566 29.0875 89.2328 28.9507 89.3185 28.8237C89.4233 28.6625 89.5138 28.6283 89.6804 28.7211C90.1661 28.98 90.6518 29.2438 91.128 29.5124C91.3185 29.6199 91.3375 29.7078 91.2375 29.9228C91.0137 30.3966 90.7518 30.846 90.4471 31.2709C89.1757 33.0441 87.471 34.0552 85.3473 34.3288C84.1712 34.4802 82.9998 34.4216 81.8475 34.109C80.5142 33.7475 79.3952 33.0441 78.4905 31.9792C77.3763 30.6652 76.662 29.1607 76.4763 27.4218C76.2144 24.9843 76.8525 22.8106 78.4095 20.9349C79.6999 19.3864 81.3427 18.556 83.3188 18.385C84.6188 18.2727 85.8949 18.3997 87.0948 18.9272C89.3805 19.9286 90.8375 21.6871 91.4899 24.1392C91.6803 24.8524 91.7661 25.5851 91.7708 26.3227C91.7708 26.3862 91.7756 26.4497 91.7661 26.5181C91.7518 26.6549 91.6803 26.7379 91.5423 26.7477C91.4613 26.7526 91.3804 26.7526 91.2994 26.7526C89.2614 26.7526 87.2234 26.7526 85.1854 26.7526ZM89.2328 24.657C88.5614 21.7408 86.0568 20.5929 83.9807 20.6271C81.5903 20.6711 79.719 22.156 79.0666 24.657C82.4522 24.657 85.833 24.657 89.2328 24.657Z" fill="#0F0F0F"/>
<path d="M94.7156 23.8683C94.7156 20.5223 94.7156 17.1811 94.7156 13.8351C94.7156 13.371 94.7441 13.3417 95.2061 13.3417C95.6727 13.3417 96.1394 13.3417 96.606 13.3417C96.9632 13.3417 97.0203 13.4052 97.0251 13.7814C97.0251 14.2796 97.0251 14.7778 97.0251 15.2712C97.0251 21.4699 97.0251 27.6687 97.0251 33.8674C97.0251 34.3852 97.0156 34.3949 96.5156 34.3949C96.0489 34.3949 95.5822 34.3949 95.1156 34.3949C94.7537 34.3949 94.7203 34.3607 94.7203 33.9797C94.7203 30.9317 94.7203 27.8836 94.7203 24.8306C94.7156 24.5131 94.7156 24.1907 94.7156 23.8683Z" fill="#0F0F0F"/>
<path d="M102.652 23.8781C102.652 27.2241 102.652 30.5653 102.652 33.9113C102.652 34.3852 102.638 34.3998 102.19 34.3998C101.695 34.3998 101.205 34.3998 100.709 34.3998C100.409 34.3998 100.352 34.3363 100.347 34.0237C100.347 33.9797 100.347 33.9309 100.347 33.8869C100.347 27.2193 100.347 20.5467 100.347 13.8791C100.347 13.3759 100.376 13.3417 100.857 13.3417C101.314 13.3417 101.771 13.3417 102.233 13.3417C102.304 13.3417 102.376 13.3466 102.447 13.3564C102.571 13.371 102.643 13.4492 102.652 13.5762C102.657 13.669 102.657 13.7618 102.657 13.8546C102.652 17.1909 102.652 20.5369 102.652 23.8781Z" fill="#0F0F0F"/>
<path d="M114.334 26.7507C112.296 26.7507 110.258 26.7507 108.22 26.7507C107.92 26.7507 107.91 26.6725 107.944 27.0633C108.053 28.2942 108.444 29.4128 109.234 30.3654C110.01 31.2983 110.967 31.9431 112.163 32.1385C113.982 32.4365 115.62 31.9822 117.029 30.7513C117.448 30.3849 117.762 29.9209 118.072 29.4519C118.205 29.2468 118.329 29.0318 118.462 28.8267C118.567 28.6655 118.658 28.6313 118.824 28.7241C119.31 28.983 119.796 29.2468 120.272 29.5154C120.462 29.6229 120.481 29.7108 120.381 29.9257C120.158 30.3996 119.896 30.849 119.591 31.2739C118.32 33.0471 116.615 34.0582 114.491 34.3318C113.315 34.4832 112.144 34.4246 110.991 34.112C109.658 33.7505 108.539 33.0471 107.634 31.9822C106.52 30.6682 105.806 29.1637 105.62 27.4248C105.358 24.9873 105.996 22.8136 107.553 20.9378C108.844 19.3894 110.487 18.559 112.463 18.388C113.763 18.2757 115.039 18.4027 116.239 18.9302C118.524 19.9316 119.981 21.6852 120.634 24.1422C120.824 24.8554 120.91 25.5881 120.915 26.3257C120.915 26.3892 120.919 26.4527 120.91 26.5211C120.896 26.6579 120.824 26.7409 120.686 26.7507C120.605 26.7556 120.524 26.7556 120.443 26.7556C118.415 26.7507 116.377 26.7507 114.334 26.7507ZM108.206 24.6502C111.606 24.6502 114.986 24.6502 118.372 24.6502C117.791 21.9734 115.539 20.6985 113.415 20.6301C111.02 20.5471 108.963 21.905 108.206 24.6502Z" fill="#0F0F0F"/>
<path d="M123.448 29.8106C123.448 28.4917 123.448 27.1777 123.448 25.8588C123.448 25.2629 123.591 24.6914 123.772 24.1296C124.195 22.8254 124.762 21.5945 125.714 20.6029C126.619 19.665 127.686 18.986 128.967 18.7125C129.457 18.6099 129.928 18.7223 130.39 18.8883C130.609 18.9665 130.824 19.0691 131.024 19.1912C131.2 19.2987 131.228 19.4012 131.128 19.582C130.833 20.0851 130.524 20.5833 130.224 21.0865C130.148 21.2135 130.038 21.2574 129.9 21.2086C129.209 20.9692 128.6 21.1646 128.067 21.6189C127.114 22.4298 126.391 23.4116 126.057 24.6523C125.938 25.0968 125.905 25.5609 125.871 26.02C125.795 27.0409 125.771 28.0618 125.767 29.0876C125.762 30.6996 125.767 32.3115 125.767 33.9235C125.767 34.3534 125.748 34.3729 125.324 34.3729C124.819 34.3729 124.319 34.3729 123.814 34.3729C123.495 34.3729 123.438 34.3094 123.438 33.987C123.448 32.5949 123.448 31.2027 123.448 29.8106Z" fill="#0F0F0F"/>
</g>
<defs>
<clipPath id="clip0_841_1556">
<rect width="128" height="32" fill="white" transform="translate(8 8)"/>
</clipPath>
</defs>
</svg>
